PathFileType	4	(X/Y/Z)	C:\Users\Basilio\Documents\Thesis Gigler\squatting_fais\c3dfiles\073\SLS_front_pre4\markers_experimental.trc
DataRate	CameraRate	NumFrames	NumMarkers	Units	OrigDataRate	OrigDataStartFrame	OrigNumFrames
200.000000	200.000000	4	61	mm	200.000000	166	1329
Frame#	Time	FHD			LBHD			RBHD			C7			T10			CLAV			LSHO			LUUPA			LMUPA			LDUPA			LLEP			LMEP			LRAD			LUL			LRFIN			RSHO			RUPA1			RMUPA			RDUPA			RLEP			RMEP			RRAD			RUL			RUFIN			LASI			RASI			USACR			LSACR			RSACR			LTHI1			LTHI2			LTHI3			LTHI4			LLFC			LMFC			LTIB1			LTIB2			LTIB3			LTIB4			LLMAL			LMMAL			LHEE			LMT1			LMT2			LMT5			RTHI			RTHI2			RTHI3			RTHI4			RLFC			RMFC			RTIB1			RTIB2			RTIB3			RTIB4			RLMAL			RMMAL			RHEE			RMT1			RMT2			RMT5			
		X1	Y1	Z1	X2	Y2	Z2	X3	Y3	Z3	X4	Y4	Z4	X5	Y5	Z5	X6	Y6	Z6	X7	Y7	Z7	X8	Y8	Z8	X9	Y9	Z9	X10	Y10	Z10	X11	Y11	Z11	X12	Y12	Z12	X13	Y13	Z13	X14	Y14	Z14	X15	Y15	Z15	X16	Y16	Z16	X17	Y17	Z17	X18	Y18	Z18	X19	Y19	Z19	X20	Y20	Z20	X21	Y21	Z21	X22	Y22	Z22	X23	Y23	Z23	X24	Y24	Z24	X25	Y25	Z25	X26	Y26	Z26	X27	Y27	Z27	X28	Y28	Z28	X29	Y29	Z29	X30	Y30	Z30	X31	Y31	Z31	X32	Y32	Z32	X33	Y33	Z33	X34	Y34	Z34	X35	Y35	Z35	X36	Y36	Z36	X37	Y37	Z37	X38	Y38	Z38	X39	Y39	Z39	X40	Y40	Z40	X41	Y41	Z41	X42	Y42	Z42	X43	Y43	Z43	X44	Y44	Z44	X45	Y45	Z45	X46	Y46	Z46	X47	Y47	Z47	X48	Y48	Z48	X49	Y49	Z49	X50	Y50	Z50	X51	Y51	Z51	X52	Y52	Z52	X53	Y53	Z53	X54	Y54	Z54	X55	Y55	Z55	X56	Y56	Z56	X57	Y57	Z57	X58	Y58	Z58	X59	Y59	Z59	X60	Y60	Z60	X61	Y61	Z61	

167	0.8300000000000001	-254.7327270507813	1697.323364257813	-805.4659423828127	-389.2193298339845	1671.040161132813	-835.3171997070315	-417.5750427246095	1651.290771484375	-702.9614868164064	-447.4530029296876	1544.572143554688	-771.048767089844	-478.5935668945314	1205.30419921875	-773.5957641601565	-321.0244750976563	1465.152954101563	-767.9598388671876	-345.5274047851563	1507.884765625	-916.7589111328127	-254.3787689208985	1431.752807617188	-1002.572387695313	-216.0442810058594	1456.204956054688	-981.2224731445315	-189.9247131347657	1407.938232421875	-1007.85791015625	-84.62842559814455	1389.816040039063	-1005.973937988281	-86.37344360351564	1338.588500976563	-957.475280761719	170.795654296875	1440.738403320313	-893.5966796875002	175.4289855957032	1432.607177734375	-967.059509277344	251.1489257812501	1458.472412109375	-886.5056762695315	-343.5161437988282	1499.484008789063	-620.6633300781251	-245.9491882324219	1401.335571289063	-525.8001708984376	-208.3267211914063	1427.925415039063	-539.6477661132814	-180.9391632080078	1378.47998046875	-519.5132446289064	-87.98734283447267	1369.648803710938	-520.0873413085939	-86.79785919189455	1318.754638671875	-584.5739135742189	165.1814117431641	1424.089721679688	-627.8765258789064	172.3976745605469	1427.245971679688	-552.8488769531251	251.8693389892579	1454.307495117188	-629.2973632812501	-306.9849853515626	1062.707641601563	-910.8247070312502	-297.8027954101563	1036.55322265625	-657.9096679687501	-489.1052856445314	1101.44287109375	-772.0023193359377	-501.7138671875001	1074.398681640625	-802.3442382812502	-502.2323303222657	1067.91015625	-746.3356323242189	-281.9919128417969	744.8527221679689	-967.1382446289065	-235.3396148681641	676.0635375976564	-949.0057373046877	-197.9049987792969	687.1328125000001	-918.8385009765627	-253.3763427734376	620.1894531250001	-946.645935058594	-247.2711029052735	560.4138183593751	-948.154479980469	-256.7021179199219	553.5358886718751	-810.7333984375002	-217.1805114746094	360.3925170898438	-898.4619140625002	-275.0599060058594	326.2118225097657	-955.6592407226565	-237.5883941650391	315.6688232421876	-932.0000610351565	-247.6358642578126	237.4410095214844	-900.3770751953127	-321.7921142578126	126.7227020263672	-932.192810058594	-313.1915893554688	148.9739074707032	-847.2150878906252	-385.1425781250001	100.9827728271485	-892.3536376953127	-166.3546752929688	72.48693847656251	-843.9614868164065	-162.3961639404297	73.45359802246095	-882.1873168945315	-197.4769744873047	54.89514541625978	-937.9114990234377	-380.5824584960938	797.4790039062502	-607.6257324218751	-342.8839721679688	742.6613769531251	-608.8179321289064	-309.4478759765626	745.3472290039064	-611.7362060546876	-366.4391174316407	666.3953247070314	-635.3550415039064	-339.7430114746094	519.2167968750001	-659.0282592773439	-339.8400268554688	515.2081909179689	-789.4658813476565	-299.8153686523438	362.3815917968751	-757.8234252929689	-317.4450378417969	277.0642089843751	-693.7877197265626	-294.8357543945313	277.9733276367188	-737.0173950195314	-315.0031738281251	234.6437683105469	-770.5115966796877	-363.6816101074219	103.3810501098633	-722.3109130859376	-359.8144531250001	127.1085433959961	-808.7592773437502	-433.6686401367189	82.08547210693361	-776.7640380859377	-209.5742492675782	54.7567710876465	-788.9739379882815	-209.5498809814454	53.66426467895509	-747.0520629882814	-253.6664581298829	35.61432266235352	-699.9092407226564	
168	0.835	-254.3624572753907	1697.294555664063	-805.2308349609377	-388.905242919922	1671.061279296875	-835.089294433594	-417.3220825195314	1651.2666015625	-702.8194580078126	-447.2857666015626	1544.64453125	-770.9116821289065	-478.588348388672	1205.404052734375	-773.315612792969	-321.0106811523438	1465.08935546875	-767.8156127929689	-345.3982849121094	1507.845336914063	-916.591735839844	-254.3251953125001	1431.671875	-1002.451904296875	-216.0224304199219	1456.09912109375	-981.0621337890627	-189.9086151123047	1407.849365234375	-1007.708801269531	-84.60005950927736	1389.676025390625	-1005.917602539063	-86.4207229614258	1338.417358398438	-957.3667602539065	170.8839416503907	1440.457641601563	-893.5775146484377	175.4436492919922	1432.26318359375	-966.9839477539065	251.222640991211	1457.966186523438	-886.550720214844	-343.3574523925782	1499.490966796875	-620.5129394531251	-245.8407440185547	1401.389404296875	-525.6961669921876	-208.1330566406251	1427.993774414063	-539.4489746093751	-180.833251953125	1378.507690429688	-519.3552246093751	-87.87753295898439	1369.578369140625	-519.9251098632814	-86.7052688598633	1318.703247070313	-584.3921508789064	165.0152435302735	1423.669677734375	-628.4717407226564	172.4928436279297	1426.948486328125	-552.7281494140626	252.1353454589844	1453.902221679688	-629.1637573242189	-307.1559143066407	1062.924072265625	-910.5332641601565	-297.9327392578126	1036.51806640625	-657.5991210937501	-489.2324829101564	1101.541625976563	-771.7272949218752	-501.8870849609376	1074.544799804688	-802.1138916015627	-502.3783569335939	1068.0224609375	-746.1209716796876	-281.8103942871094	745.0195312500001	-966.8383789062502	-235.2027130126954	676.3403930664064	-948.6370239257815	-197.8551940917969	687.4876098632814	-918.1133422851565	-253.0699768066407	620.4492797851564	-946.0449218750002	-246.7162780761719	560.7672729492189	-947.5693359375002	-256.7180786132813	553.6810913085939	-810.242858886719	-215.1562042236329	360.9225463867188	-897.7034912109377	-272.5646667480469	326.2273254394532	-955.1970214843752	-235.029769897461	316.1086730957032	-931.0874023437502	-244.2870483398438	237.9999084472657	-899.6846923828127	-317.6433715820313	126.3778610229492	-931.8279418945315	-309.3618774414063	148.6383361816407	-846.7843017578127	-380.9432373046876	100.2784881591797	-892.082214355469	-161.6343688964844	73.46141815185548	-842.297790527344	-157.9960632324219	74.1104202270508	-881.387878417969	-192.9461669921876	55.32602691650392	-937.151794433594	-380.5069580078126	797.3152465820315	-607.5223388671876	-342.8371276855469	742.5969238281251	-608.8531494140626	-309.3625488281251	745.2786865234376	-611.7859497070314	-366.3696289062501	666.2993774414064	-635.3504638671876	-339.6228332519532	519.1436157226564	-659.1660766601564	-339.9707336425782	515.1566162109376	-789.5906372070315	-299.8335266113282	362.3641967773438	-758.0205688476564	-317.2247314453126	277.0608520507813	-694.1192626953126	-295.1047668457032	277.7429504394532	-737.6716918945314	-315.0552062988282	234.6290893554688	-770.8309326171877	-363.6159667968751	103.4633102416992	-722.4426879882814	-359.4741516113282	127.3040313720703	-808.572204589844	-433.6539611816407	82.09128570556642	-776.8453369140627	-209.5970916748047	54.65904235839845	-789.1655883789065	-209.523666381836	53.75829315185548	-747.1230468750001	-253.6366119384766	35.70995330810548	-699.9681396484376	
169	0.84	-254.0466308593751	1697.245971679688	-805.047790527344	-388.6289062500001	1671.081665039063	-834.9123535156252	-417.0946044921876	1651.31396484375	-702.6469726562501	-447.1262817382814	1544.674438476563	-770.7041015625002	-478.654998779297	1205.449584960938	-773.0208129882815	-320.9991455078126	1465.031372070313	-767.6781616210939	-345.3583068847657	1507.787109375	-916.439636230469	-254.331771850586	1431.613159179688	-1002.2587890625	-215.9425354003907	1456.037475585938	-980.8865356445315	-189.9278411865235	1407.800903320313	-1007.54931640625	-84.62630462646486	1389.531616210938	-1005.780822753906	-86.45089721679689	1338.26318359375	-957.3565673828127	170.942626953125	1440.081420898438	-893.549011230469	175.4342651367188	1431.9560546875	-966.995544433594	251.3285064697266	1457.422485351563	-886.5452880859377	-343.1796569824219	1499.57275390625	-620.3739624023439	-245.6869049072266	1401.482055664063	-525.5633544921876	-207.941635131836	1428.014038085938	-539.2758789062501	-180.7003631591797	1378.52783203125	-519.1760864257814	-87.7694549560547	1369.505859375	-519.7914428710939	-86.65766906738283	1318.635498046875	-584.2012939453126	165.2545471191407	1423.254028320313	-628.2517089843751	172.6477813720703	1426.665161132813	-552.5778808593751	252.3161621093751	1453.391479492188	-628.9485473632814	-307.3355407714844	1063.124755859375	-910.3085937500002	-298.0904235839844	1036.51513671875	-657.3461303710939	-489.3450012207032	1101.602905273438	-771.5246582031252	-501.832733154297	1074.61376953125	-801.9680175781252	-502.4333801269532	1068.030151367188	-745.9216308593751	-281.6214599609376	745.1689453125001	-966.682312011719	-234.9803771972657	676.5659790039064	-948.1934204101565	-197.7516021728516	687.7699584960939	-917.4344482421877	-252.8751678466797	620.7327880859376	-945.5689086914065	-246.2561798095704	561.0877685546876	-947.0452270507815	-256.8134155273438	553.8794555664064	-809.7861328125002	-213.1750030517579	361.4306945800782	-897.1504516601565	-270.2415466308594	326.2092590332032	-954.724548339844	-232.5210113525391	316.4308166503907	-930.7925415039065	-242.1273651123047	237.7232971191407	-899.5222778320315	-313.3613586425782	125.9907150268555	-931.512634277344	-305.5686340332032	148.2950592041016	-846.3820800781252	-376.6077575683594	99.52017211914065	-891.8544921875002	-157.3193511962891	74.1226043701172	-841.5286254882815	-153.5871887207032	74.79206848144533	-880.737487792969	-188.1405029296875	55.6781692504883	-936.3933105468752	-380.4384765625001	797.2031860351565	-607.4051513671876	-342.6918640136719	742.4896850585939	-608.9439697265626	-309.2632141113282	745.2218627929689	-611.8244018554689	-366.2748413085938	666.2218627929689	-635.3852539062501	-339.3744201660157	519.1320190429689	-659.2788085937501	-340.0983581542969	515.2152099609376	-789.705505371094	-299.8551025390626	362.3393859863282	-758.2548828125001	-316.9377746582032	277.1247558593751	-694.3914184570314	-295.4800109863282	277.7939453125001	-738.3765869140626	-315.0741882324219	234.6483917236329	-771.0875244140627	-363.5012512207032	103.5265808105469	-722.5765380859376	-359.2539367675782	127.4803619384766	-808.3759765625002	-433.6564331054689	82.02959442138673	-776.9483032226565	-209.561264038086	54.6589698791504	-789.195251464844	-209.519027709961	53.8590660095215	-747.1928100585939	-253.6535034179688	35.79277420043946	-700.0716552734376	
170	0.845	-253.7689971923829	1697.203857421875	-804.8044433593752	-388.3934936523439	1671.0830078125	-834.7298583984377	-416.8823242187501	1651.290771484375	-702.4826660156251	-446.9873962402345	1544.69287109375	-770.5656738281252	-478.7252807617189	1205.513549804688	-772.7405395507815	-320.4869384765626	1465.269775390625	-767.3453979492189	-345.2831726074219	1507.703491210938	-916.225280761719	-254.3779296875001	1431.526977539063	-1002.104187011719	-215.9151763916016	1455.898193359375	-980.7120361328127	-189.921615600586	1407.676879882813	-1007.362060546875	-84.65904235839845	1389.3935546875	-1005.70263671875	-86.46239471435548	1338.09033203125	-957.2906494140627	170.9637298583985	1439.648315429688	-893.593200683594	175.4563446044922	1431.647338867188	-967.0701293945315	251.3896026611329	1456.947875976563	-886.626647949219	-343.0689086914063	1499.613647460938	-620.2799682617189	-245.5685424804688	1401.552856445313	-525.4468994140626	-207.7816467285157	1428.042114257813	-539.1101074218751	-180.5955200195313	1378.570190429688	-519.0195312500001	-87.62764739990236	1369.466064453125	-519.5883789062501	-86.5830764770508	1318.536010742188	-584.0458374023439	164.8719329833985	1423.590087890625	-626.4982299804689	172.7156066894532	1426.427856445313	-552.4379272460939	252.5388946533204	1452.998779296875	-628.7852783203126	-307.4976196289063	1063.369873046875	-910.0725097656252	-298.2093811035157	1036.48974609375	-656.9659423828126	-489.5342712402345	1101.666259765625	-771.2634887695315	-501.980682373047	1074.72607421875	-801.7321777343752	-502.5950317382814	1068.078002929688	-745.7135620117189	-281.4468383789063	745.3493041992189	-966.424987792969	-234.8520202636719	676.8336181640626	-947.6204223632815	-197.731674194336	688.0394287109376	-916.8090820312502	-252.6246337890626	620.9721679687501	-945.112243652344	-245.7667999267579	561.3173828125001	-946.4240722656252	-257.0381164550782	553.9995727539064	-809.284118652344	-211.0992126464844	361.9228210449219	-896.4421997070315	-267.7753295898438	326.4034118652344	-954.0977172851565	-230.1142272949219	316.6846923828126	-930.2732543945315	-238.2259826660157	238.2019958496094	-898.6329345703127	-309.1660156250001	125.6135711669922	-931.0372314453127	-301.6452331542969	147.9620819091797	-845.9690551757815	-372.7174377441407	98.85316467285159	-891.6355590820315	-153.0410308837891	74.68785095214845	-840.975036621094	-149.1972045898438	75.47143554687501	-879.9502563476565	-183.315658569336	56.31004333496095	-935.658630371094	-380.3502807617188	797.0778808593752	-607.3516235351564	-342.6008300781251	742.4189453125001	-608.9437866210939	-309.1562500000001	745.1671142578126	-611.8975830078126	-366.1072387695313	666.1419677734376	-635.3904418945314	-339.1521606445313	519.0673217773439	-659.4126586914064	-340.1206054687501	515.1787109375001	-789.8863525390627	-299.9456481933594	362.3420410156251	-758.5452880859376	-316.7093505859376	277.0999145507813	-694.7440185546876	-295.3206481933594	277.6556091308594	-738.6408081054689	-315.0070495605469	234.608383178711	-771.4148559570315	-363.4587707519532	103.56591796875	-722.7297363281251	-359.4231262207032	127.5991897583008	-808.6544189453127	-433.6314392089845	82.00058746337892	-777.0401611328127	-209.5469970703126	54.6758155822754	-789.2454223632815	-209.5158996582032	53.94908523559572	-747.2306518554689	-253.5929870605469	35.88735961914063	-700.1329345703126	
